Coordinates
version=1
nRows=10
nColumns=40
inDegrees=yes

Units are S.I. units (second, meters, Newtons, ...)
Angles are in degrees.

endheader
time	pelvis_tilt	pelvis_list	pelvis_rotation	pelvis_tx	pelvis_ty	pelvis_tz	hip_flexion_r	hip_adduction_r	hip_rotation_r	knee_angle_r	knee_angle_r_beta	ankle_angle_r	subtalar_angle_r	mtp_angle_r	hip_flexion_l	hip_adduction_l	hip_rotation_l	knee_angle_l	knee_angle_l_beta	ankle_angle_l	subtalar_angle_l	mtp_angle_l	lumbar_extension	lumbar_bending	lumbar_rotation	arm_flex_r	arm_add_r	arm_rot_r	elbow_flex_r	pro_sup_r	wrist_flex_r	wrist_dev_r	arm_flex_l	arm_add_l	arm_rot_l	elbow_flex_l	pro_sup_l	wrist_flex_l	wrist_dev_l
     44.25828571	     -3.64955959	     -6.39874211	     -0.62235344	      1.03030330	      0.93932767	      0.43389839	     30.54740609	     -3.86589824	     -6.52172182	     39.48984030	     39.48984030	      4.84921549	     -8.20921375	     -0.25090929	     11.81798777	     -6.72364564	    -12.61410694	     17.75486466	     17.75486466	     13.93847706	      0.68236876	     -3.62935588	    -10.51846786	      2.93954846	     -1.04293002	     -8.90855269	    -13.18352973	      1.86842519	     25.65738294	     45.99599520	      0.00000000	      0.00000000	     24.13105913	    -17.23455171	     -3.54707713	     35.41486213	     46.42446076	      0.00000000	      0.00000000
     44.27157143	     -3.79548227	     -6.32497572	     -0.73054270	      1.02882973	      0.93916537	      0.43398327	     30.42133812	     -3.69087334	     -6.70158910	     36.51368310	     36.51368310	      4.94191774	     -7.46883000	      0.11636354	     11.46276064	     -6.60380128	    -12.73087275	     17.33396070	     17.33396070	     13.98665008	      0.79724323	     -3.85365079	    -10.47006550	      2.83754786	     -1.06738783	     -9.79399461	    -13.15909553	      1.69638090	     25.45796157	     46.01270522	      0.00000000	      0.00000000	     24.41113545	    -17.30420513	     -3.66797397	     36.16094580	     46.44590270	      0.00000000	      0.00000000
     44.28485714	     -3.80100325	     -6.09117703	     -0.89063803	      1.02756900	      0.93906738	      0.43409566	     30.15558495	     -3.69319756	     -6.93861609	     33.74660944	     33.74660944	      5.04071379	     -6.35589021	      0.39457909	     10.78697103	     -6.27476667	    -12.97149511	     16.62650683	     16.62650683	     13.77577078	      0.86729312	     -4.72881209	    -10.60374500	      2.54727012	     -0.93451314	    -10.73041708	    -13.07599609	      0.95044675	     25.63342498	     46.06613084	      0.00000000	      0.00000000	     24.32402612	    -17.32895774	     -3.98893417	     38.19286152	     46.48969965	      0.00000000	      0.00000000
     44.29814286	     -3.89508825	     -5.92385708	     -1.01022354	      1.02627400	      0.93878826	      0.43428818	     29.92355977	     -3.58792782	     -7.23978142	     31.09932673	     31.09932673	      5.20847209	     -5.37593821	      1.11665930	     10.28994240	     -6.00952317	    -13.00357862	     16.02137950	     16.02137950	     13.38437453	      0.60697551	     -5.92944443	    -10.60211830	      2.37315257	     -1.20552471	    -11.26600089	    -13.00919974	     -0.25920813	     25.78247447	     46.16906187	      0.00000000	      0.00000000	     23.93304984	    -17.56491595	     -4.22745158	     39.96628122	     46.51900291	      0.00000000	      0.00000000
     44.31142857	     -3.99612243	     -5.72789252	     -1.13662954	      1.02510334	      0.93846849	      0.43459897	     29.64034293	     -3.47839439	     -7.58756062	     28.59868563	     28.59868563	      5.26471504	     -4.44426884	      1.63301689	      9.82701083	     -5.76264594	    -13.19024418	     15.54535345	     15.54535345	     13.51858874	      0.81141221	     -6.04499566	    -10.54818879	      2.15784904	     -1.15367119	    -11.69693984	    -13.02380753	     -0.35330516	     25.63365700	     46.18075241	      0.00000000	      0.00000000	     24.11061903	    -17.53558662	     -4.24435666	     40.33376043	     46.52511251	      0.00000000	      0.00000000
     44.32471429	     -4.08929079	     -5.46899934	     -1.27271700	      1.02408016	      0.93807278	      0.43495558	     29.34954569	     -3.42127582	     -7.96170101	     26.39423819	     26.39423819	      5.37811140	     -3.44469072	      2.15257056	      9.32410174	     -5.44870775	    -13.43889906	     15.02908767	     15.02908767	     13.62438510	      1.05832376	     -6.20123534	    -10.49070715	      1.90345193	     -1.08112110	    -12.02410429	    -13.02196415	     -0.44807608	     25.60193109	     46.18792103	      0.00000000	      0.00000000	     24.18700022	    -17.46690005	     -4.26389536	     40.80307829	     46.53029590	      0.00000000	      0.00000000
     44.33800000	     -4.04616871	     -5.11766034	     -1.40714891	      1.02334282	      0.93777088	      0.43529088	     28.99895901	     -3.53064539	     -8.56737919	     24.73683396	     24.73683396	      6.06283761	     -1.96257508	      4.01402489	      8.52835409	     -4.97700618	    -13.64834510	     14.21605013	     14.21605013	     13.24966187	      1.09937840	     -7.35860705	    -10.57156299	      1.52629480	     -1.18316290	    -12.29784200	    -13.07335495	     -1.24929422	     26.09227717	     46.23624283	      0.00000000	      0.00000000	     23.54822982	    -17.58749836	     -4.41477893	     42.76806357	     46.55053529	      0.00000000	      0.00000000
     44.35128571	     -4.12455707	     -4.82528993	     -1.52277094	      1.02267596	      0.93722900	      0.43578630	     28.66001975	     -3.46466086	     -8.94843710	     23.12377401	     23.12377401	      6.11774262	     -1.25009308	      4.45716329	      8.02564826	     -4.63567434	    -13.87565379	     13.76239925	     13.76239925	     13.40346021	      1.34914093	     -7.45837119	    -10.44455729	      1.24629773	     -1.11380604	    -12.36332695	    -13.11369659	     -1.30093491	     26.10290024	     46.23982064	      0.00000000	      0.00000000	     23.51175389	    -17.44667868	     -4.40105247	     42.95882246	     46.55029608	      0.00000000	      0.00000000
     44.36457143	     -4.04384724	     -4.43142892	     -1.63382581	      1.02229328	      0.93684518	      0.43625404	     28.19697807	     -3.57832058	     -9.54716556	     21.96810967	     21.96810967	      6.38276602	     -0.18052312	      5.18160225	      7.23497168	     -4.16035924	    -14.21411956	     13.11251913	     13.11251913	     13.42528458	      1.76243711	     -7.77940515	    -10.47393730	      0.84183044	     -1.07704067	    -12.37057343	    -13.19940032	     -1.48589340	     26.38143658	     46.24300899	      0.00000000	      0.00000000	     23.23819379	    -17.32140992	     -4.45942551	     43.58175913	     46.55784781	      0.00000000	      0.00000000
     44.37785714	     -4.16471161	     -4.02890159	     -1.68033595	      1.02187959	      0.93587263	      0.43679638	     28.01673958	     -3.62852658	     -9.73032843	     21.20788910	     21.20788910	      6.44845963	     -0.05070432	      5.39458355	      6.97239422	     -3.74100108	    -14.29629544	     13.04225894	     13.04225894	     13.70455732	      1.82957161	     -7.94886420	    -10.24229596	      0.45356838	     -1.04101622	    -12.22007669	    -13.31045664	     -1.52423685	     26.48913851	     46.24285310	      0.00000000	      0.00000000	     23.04620938	    -17.09129744	     -4.41841746	     43.62750315	     46.55165325	      0.00000000	      0.00000000
